<?xml version="1.0" encoding="UTF-8"?>
<svg version="1.1" xmlns="http://www.w3.org/2000/svg" width="512" height="512">
<path d="M0 0 C0.84643066 0.47791992 1.69286133 0.95583984 2.56494141 1.44824219 C7.36371587 4.17762734 12.08810969 7.01846627 16.79296875 9.90625 C17.77692627 10.50469727 18.76088379 11.10314453 19.7746582 11.71972656 C21.68560275 12.88765948 23.58695844 14.07145955 25.47729492 15.27246094 C26.34845947 15.80645508 27.21962402 16.34044922 28.1171875 16.890625 C29.2616333 17.61040527 29.2616333 17.61040527 30.42919922 18.34472656 C33.6441317 19.56588715 35.516324 19.14587286 38.8125 18.25 C41.49019418 17.02290443 41.49019418 17.02290443 44.0859375 15.40625 C45.55921509 14.53166138 45.55921509 14.53166138 47.06225586 13.6394043 C48.09358643 13.01590088 49.12491699 12.39239746 50.1875 11.75 C52.34217135 10.47479299 54.49711992 9.20005429 56.65234375 7.92578125 C59.55423756 6.19728706 62.45407814 4.4656881 65.34814453 2.72412109 C67.47435419 1.44821322 69.61057957 0.19107902 71.75 -1.0625 C72.34409668 -1.42859375 72.93819336 -1.7946875 73.55029297 -2.171875 C79.00539541 -5.34283644 84.47078616 -6.19799994 90.66796875 -5.3671875 C91.43753906 -5.12226562 92.20710938 -4.87734375 93 -4.625 C93.77730469 -4.39554688 94.55460937 -4.16609375 95.35546875 -3.9296875 C103.56509731 0.01197836 106.7952903 6.78176209 111.0625 14.5 C112.94486878 17.8473253 114.82972148 21.18687148 116.77978516 24.49536133 C118.33073828 27.2102415 119.49453313 29.93379077 120.60693359 32.85424805 C122.60843794 37.65764048 124.59214805 42.03088245 128.8125 45.25 C137.09658195 48.06381217 146.34273877 46.98704079 154.9375 46.5625 C158.49709115 46.45616077 162.05582363 46.37407524 165.61642456 46.31034851 C167.82325125 46.26345327 170.02971839 46.18827765 172.23440552 46.08039856 C179.82136941 45.81586921 184.92214013 46.89287479 190.8359375 51.99609375 C191.28195312 52.55425781 191.72796875 53.11242187 192.1875 53.6875 C192.87972656 54.52087891 192.87972656 54.52087891 193.5859375 55.37109375 C196.17864524 59.34272567 197.07255078 62.63862102 196.71875 67.35302734 C196.65582764 68.34570618 196.59290527 69.33838501 196.52807617 70.36114502 C196.45693604 71.42532654 196.3857959 72.48950806 196.3125 73.5859375 C193.86176109 96.71556932 193.86176109 96.71556932 200.12890625 118.00195312 C206.01810734 123.36183188 212.96164767 125.89867912 220.49804688 128.17724609 C225.26006394 129.71851768 229.32452025 132.06559676 233.5625 134.6875 C234.24513916 135.0899292 234.92777832 135.4923584 235.63110352 135.90698242 C241.81360319 139.62843365 245.46758657 143.02932697 247.66015625 149.91015625 C250.24855557 161.17821795 245.77824541 168.73131848 240.25 178.3125 C239.62536865 179.41634033 239.0007373 180.52018066 238.35717773 181.6574707 C235.60605697 186.49557532 232.81871433 191.29866869 229.8515625 196.0078125 C229.42689697 196.68577881 229.00223145 197.36374512 228.56469727 198.06225586 C227.45794819 199.80675404 226.32565877 201.53497655 225.19140625 203.26171875 C223.50033576 206.92650325 223.87106808 208.37686061 224.8125 212.25 C226.03959557 214.92769418 226.03959557 214.92769418 227.65625 217.5234375 C228.53083862 218.99671509 228.53083862 218.99671509 229.4230957 220.49975586 C230.04659912 221.53108643 230.67010254 222.56241699 231.3125 223.625 C232.58770701 225.77967135 233.86244571 227.93461992 235.13671875 230.08984375 C236.86521294 232.99173756 238.5968119 235.89157814 240.33837891 238.78564453 C241.61428678 240.91185419 242.87142098 243.04807957 244.125 245.1875 C244.49109375 245.78159668 244.8571875 246.37569336 245.234375 246.98779297 C248.40533644 252.44289541 249.26049994 257.90828616 248.4296875 264.10546875 C248.06230469 265.25982422 248.06230469 265.25982422 247.6875 266.4375 C247.45804687 267.21480469 247.22859375 267.99210937 246.9921875 268.79296875 C243.05052164 277.00259731 236.28073791 280.2327903 228.5625 284.5 C225.2151747 286.38236878 221.87562852 288.26722148 218.56713867 290.21728516 C215.8522585 291.76823828 213.12870923 292.93203313 210.20825195 294.04443359 C205.40485952 296.04593794 201.03161755 298.02964805 197.8125 302.25 C194.99868783 310.53408195 196.07545921 319.78023877 196.5 328.375 C196.60633923 331.93459115 196.68842476 335.49332363 196.75215149 339.05392456 C196.79904673 341.26075125 196.87422235 343.46721839 196.98210144 345.67190552 C197.24663079 353.25886941 196.16962521 358.35964013 191.06640625 364.2734375 C190.50824219 364.71945312 189.95007813 365.16546875 189.375 365.625 C188.81941406 366.08648437 188.26382812 366.54796875 187.69140625 367.0234375 C183.71977433 369.61614524 180.42387898 370.51005078 175.70947266 370.15625 C174.71679382 370.09332764 173.72411499 370.03040527 172.70135498 369.96557617 C171.63717346 369.89443604 170.57299194 369.8232959 169.4765625 369.75 C146.34693068 367.29926109 146.34693068 367.29926109 125.06054688 373.56640625 C119.70066812 379.45560734 117.16382088 386.39914767 114.88525391 393.93554688 C113.34398232 398.69756394 110.99690324 402.76202025 108.375 407 C107.9725708 407.68263916 107.5701416 408.36527832 107.15551758 409.06860352 C103.43406635 415.25110319 100.03317303 418.90508657 93.15234375 421.09765625 C81.88428205 423.68605557 74.33118152 419.21574541 64.75 413.6875 C63.64615967 413.06286865 62.54231934 412.4382373 61.4050293 411.79467773 C56.56692468 409.04355697 51.76383131 406.25621433 47.0546875 403.2890625 C46.37672119 402.86439697 45.69875488 402.43973145 45.00024414 402.00219727 C43.25574596 400.89544819 41.52752345 399.76315877 39.80078125 398.62890625 C36.13442357 396.93710983 34.68755858 397.30671136 30.8125 398.25 C28.10198771 399.49355971 28.10198771 399.49355971 25.46875 401.12890625 C24.47576904 401.71712158 23.48278809 402.30533691 22.4597168 402.91137695 C20.90184448 403.85243286 20.90184448 403.85243286 19.3125 404.8125 C17.16297241 406.08889874 15.01323368 407.36494198 12.86328125 408.640625 C11.8263916 409.26001953 10.78950195 409.87941406 9.72119141 410.51757812 C6.00026382 412.73376934 2.25821588 414.91030192 -1.5 417.0625 C-2.54800781 417.66707031 -3.59601563 418.27164062 -4.67578125 418.89453125 C-10.96752172 422.28991841 -18.73071191 422.37857376 -25.609375 420.63671875 C-35.52876532 416.27295595 -40.1728472 404.32469696 -45.1875 395.375 C-46.22527176 393.53358792 -47.26466376 391.69310595 -48.30517578 389.85324097 C-49.25055076 388.17996048 -50.19182654 386.5043659 -51.1328125 384.82861328 C-51.45756561 384.28183929 -51.78231873 383.73506531 -52.11691284 383.17172241 C-53.1875 381.25 -53.1875 381.25 -54.35403442 378.63613892 C-56.87215894 373.33222675 -56.87215894 373.33222675 -61.67230225 370.37142944 C-64.78099008 370.05977309 -67.74529856 370.07323038 -70.8671875 370.1953125 C-72.55728439 370.19747269 -72.55728439 370.19747269 -74.28152466 370.19967651 C-77.87739186 370.21115715 -81.46769962 370.28928339 -85.0625 370.375 C-88.64919011 370.42897142 -92.23499664 370.46846576 -95.822052 370.48605347 C-98.05057693 370.50023143 -100.27910714 370.53682396 -102.50680542 370.59915161 C-110.0776293 370.69226275 -115.3138382 369.59271587 -121.2109375 364.50390625 C-121.65695313 363.94574219 -122.10296875 363.38757813 -122.5625 362.8125 C-123.02398437 362.25691406 -123.48546875 361.70132812 -123.9609375 361.12890625 C-126.55212883 357.15959724 -127.44525363 353.84348525 -127.12548828 349.13110352 C-127.06894073 348.13523727 -127.01239319 347.13937103 -126.95413208 346.11332703 C-126.88934662 345.04596817 -126.82456116 343.97860931 -126.7578125 342.87890625 C-124.39784178 319.89386354 -124.39784178 319.89386354 -130.30761719 298.59619141 C-135.67822364 293.50398125 -142.0445629 291.25603441 -149.06494141 289.2421875 C-153.78643252 287.741942 -157.71500672 285.2629759 -161.875 282.625 C-163.19010541 281.85973928 -164.506417 281.09654564 -165.82421875 280.3359375 C-172.75372866 276.03819268 -176.60629846 272.16231882 -178.7265625 264.234375 C-180.4111178 254.28374605 -175.42076671 246.49919891 -170.625 238.1875 C-170.00036865 237.08365967 -169.3757373 235.97981934 -168.73217773 234.8425293 C-165.98105697 230.00442468 -163.19371433 225.20133131 -160.2265625 220.4921875 C-159.80189697 219.81422119 -159.37723145 219.13625488 -158.93969727 218.43774414 C-157.83294819 216.69324596 -156.70065877 214.96502345 -155.56640625 213.23828125 C-153.87533576 209.57349675 -154.24606808 208.12313939 -155.1875 204.25 C-156.41459557 201.57230582 -156.41459557 201.57230582 -158.03125 198.9765625 C-158.61430908 197.99429688 -159.19736816 197.01203125 -159.7980957 196 C-160.42159912 194.96875 -161.04510254 193.9375 -161.6875 192.875 C-162.96277894 190.7216735 -164.23751746 188.56802686 -165.51171875 186.4140625 C-167.24331251 183.5074109 -168.97699382 180.60203369 -170.71337891 177.69824219 C-171.98828101 175.55597002 -173.24615969 173.40464225 -174.5 171.25 C-174.86609375 170.64752441 -175.2321875 170.04504883 -175.609375 169.42431641 C-178.79797706 163.90784873 -179.97193329 158.05995775 -178.625 151.75 C-176.06623545 142.64408375 -170.27142801 138.21657699 -162.24804688 133.703125 C-161.13494141 133.09984375 -160.02183594 132.4965625 -158.875 131.875 C-155.54436041 130.02219387 -152.22085741 128.16645713 -148.92602539 126.25048828 C-146.21640096 124.7218971 -143.49432596 123.56919382 -140.58764648 122.46435547 C-135.7810155 120.46194576 -131.40774718 118.47331124 -128.1875 114.25 C-125.37344773 105.96604141 -126.4504616 96.71971282 -126.875 88.125 C-126.98133923 84.56540885 -127.06342476 81.00667637 -127.12715149 77.44607544 C-127.17404673 75.23924875 -127.24922235 73.03278161 -127.35710144 70.82809448 C-127.62163079 63.24113059 -126.54462521 58.14035987 -121.44140625 52.2265625 C-120.88324219 51.78054687 -120.32507813 51.33453125 -119.75 50.875 C-119.19441406 50.41351563 -118.63882813 49.95203125 -118.06640625 49.4765625 C-114.09477433 46.88385476 -110.79887898 45.98994922 -106.08447266 46.34375 C-105.09179382 46.40667236 -104.09911499 46.46959473 -103.07635498 46.53442383 C-102.01217346 46.60556396 -100.94799194 46.6767041 -99.8515625 46.75 C-76.72193068 49.20073891 -76.72193068 49.20073891 -55.43554688 42.93359375 C-50.07566812 37.04439266 -47.53882088 30.10085233 -45.26025391 22.56445312 C-43.71886782 17.80208228 -41.37097549 13.7388199 -38.75 9.5 C-38.34974609 8.81736084 -37.94949219 8.13472168 -37.53710938 7.43139648 C-33.62962419 0.91090497 -29.47616417 -2.90705371 -22.25 -5.1875 C-13.71134478 -6.67904026 -7.29904466 -4.28412505 0 0 Z " fill="#000000" transform="translate(221.1875,47.75)"/>
</svg>
