<?xml version="1.0" encoding="UTF-8"?>
<svg version="1.1" viewBox="0 0 2048 2048" width="2240" height="2240" xmlns="http://www.w3.org/2000/svg">
<path transform="translate(1207,899)" d="m0 0h39l16 3 17 5 8 4 10 4 20 12 9 7 10 9 8 7v2h2l9 11 12 18 12 24 5 15 4 19 1 2 2 17v20l-2 17-3 15-8 24-9 17-5 9-10 14-9 10-7 8-11 10-13 9-13 8-16 8-10 4-15 4-18 4h-40l-17-2-15-4-16-6-19-9-9-6-46-28-41-26-13-8-16-10-30-18-14-9-19-12-17-11-24-15-17-11-11-9-6-8-5-11-2-8v-17l3-12 7-13 6-7 10-8 12-6 7-2h30l13 5 16 9 33 22 14 9 24 15 28 17 12 8 11 7 13 8 11 8 12 8 26 17 48 32 14 8 5 2h17l16-5 13-8 10-9 6-7 6-10 5-16v-24l-4-15-8-16-9-12-7-6-10-6-13-5-14-3h-11l-17 3-13 6-12 8-10 9-9 14-6 13-1 4-7-1-12-8-13-8-22-13-14-9-16-10-1-1v-5l10-11 7-10 4-8 8-9 7-8 10-9 8-7 5-4 17-10 18-10 20-7 13-4z" fill="#1E3062"/>
<path transform="translate(814,897)" d="m0 0h15l25 3 18 5 21 9 14 8 15 10 1 5-2 1-17 1-15 3-11 6-11 8-3 1v2l-8 7-8 11-8 15-2 2-21 1-20 4-13 6-9 6h-2l-1 3-6 5-1 2h-2l-2 5-7 11-4 12-2 10v16l4 15 5 12 10 14 9 8 14 9 12 5 13 3h16l16-4 16-8 13-10 8-9 6-9 7 1 7 4v-4l5-1 3 2 2 7 4 2 1-4 5 1 3 7 3 3 6 7 2 1v2l5 2 12 7h12v-6l7-3 2 4-1 5-2 6-1 10-2 4h-2v2h-2l-1 3-8 7-14 15-12 12-9 7-14 10-16 9-14 6-19 6-20 4-25 1-22-2-9-2-19-6-16-7-17-9-11-8-11-9-12-11-9-11-8-11-6-11-8-16-9-25-3-16-1-31v-15l4-24 6-18 7-16 8-14 10-13 10-11 9-11 11-9 17-12 14-8 8-4 24-8 14-3z" fill="#1A6292"/>
<path transform="translate(910,963)" d="m0 0h30l13 5 16 9 33 22 14 9 1 4 8 6 8 5 8 7v2l6 2 14 9 1 4 7 2 5 6v2l6 2 7 6 3 3 5 4v3l3 1v2h2l1 2 6 3 6 5v3h2v2l3 1 4 8v3l5 2 3 5-1 10-4 10-4 1v3l-17 12-4 6-14 10-2 2h-4l-1 3-9 1-12-5-6 1-21-13-16-10-35-21-14-9-19-12-17-11-24-15-17-11-11-9-6-8-5-11-2-8v-17l3-12 7-13 6-7 10-8 12-6z" fill="#1A6292"/>
<path transform="translate(810,919)" d="m0 0h18l20 1 11 3 16 4 9 4 4 3 1 4-2 3 4-2h7v1l-9 2-11 6-11 8-3 1v2l-8 7-8 11-8 15-2 2-21 1-20 4-13 6-9 6h-2l-1 3-6 5-1 2h-2l-2 5-7 11-4 12-2 10-2 43-1 2h-2l1 5-3 2-6 15-5 8-3 2-3 5-17 7-1 3-9-3-2-1-1 3-4 1-7-8-7-15-5-20-2-7v-47l5-19 8-24 7-10 7-13 9-12 10-10h2v-2h2v-2l5-5 22-16 7-3h4l1-3 13-5 6-1v-2l16-4z" fill="#3D92B5"/>
<path transform="translate(1206,917)" d="m0 0h26l24 5 12 5 16 8 7 7 6 9-1 7-8 7-8 8h-3v2l-9 3-4 5-3 3-4 7-11 2h-9l-2-1v2l5 1-2 1-10-2h-11l-17 3-13 6-12 8-10 9-9 14-6 13-1 4-7-1-12-8-13-8-22-13-12-8 3-1-3-3-1-7 11-16 3-5h2l2-6 10-11h3l2-5 7-8 5-4 16-9 9-6 5-3h4v-2h2l1-3 15-5 14-3z" fill="#215686"/>
<path transform="translate(890,1101)" d="m0 0 7 1 7 4v-4l5-1 3 2 2 7 4 2 1-4 5 1 3 7 3 3 6 7 2 1v2l5 2 12 7h12v-6l7-3 2 4-1 5-2 6-1 10-2 4h-2v2h-2l-1 3-8 7-14 15-12 12-9 7-14 10-16 9-14 6-19 6-20 4-25 1-22-2-9-2-3-1v-2l-2-1 3-1h11l12 1h7l3-2h6v-2l11-4h4l2-7 3-3h3l2-5 5-5 1-7 3-1-2-10h-7l-3-3-15-9-12-7v-2l-6-2-10-8-5-5-5-3-15-15-6-10-5-5v-3l4 2 9 8 14 9 12 5 13 3h16l16-4 16-8 13-10 8-9z" fill="#215686"/>
<path transform="translate(910,963)" d="m0 0h30l13 5 16 9 33 22 14 9 1 4 8 6 8 5 8 7v2l6 2 14 9 1 4 7 2 5 6v2l6 2 7 6 3 3 5 4v3l3 1v2h2l1 2 6 3 6 5v3h2v2l3 1 4 8v3l5 2 3 5-1 10-4 10-4 1v3l-17 12-4 6-14 10-2 2h-4l-1 3-9 1-12-5-6 1-21-13-16-10-35-21-14-9-8-5-2-5 6 2 8 5v2l6 2 6 3 11 2h10l4-4 10-4 12-14 5-2 8-3 6-4 5-11v-11l-8-12-2-4-4-3v-2l-3-1-4-6-16-10-8-7-13-9-19-14-11-8-12-8-13-4-7-1h-9l-16 3-16 8-6 7-6 12-4 22 1 11 5 12 5 6-4 1-5-4-6-8-5-11-2-8v-17l3-12 7-13 6-7 10-8 12-6z" fill="#235887"/>
<path transform="translate(890,1101)" d="m0 0 7 1 7 4v-4l5-1 3 2 2 7 4 2 1-4 5 1 3 7 3 3 6 7 2 1v2l5 2 12 7h12v-6l7-3 2 4-1 5-2 6-1 10-2 4h-2v2h-2l-1 3-8 7-14 15-12 12-3 1 1-4 14-14 1-2h2l1-4h2l-4-12v-9l-2-4-6-4-13-11-11-8-8-4-10 1-4 2-5 6-3 1-1 2h-2v2h-2v2l-4 2-4 4-12 5-17 4-13 1-23-6-7-6-16-9-4-4 5 2 14 5 12 4 6 1h16l16-4 16-8 13-10 8-9z" fill="#203667"/>
<path transform="translate(814,897)" d="m0 0h15l25 3 18 5 21 9 14 8 15 10 1 5-2 1h-17l-3-2 4-4-5-4-3-5-19-9-19-5-19-3h-32l-13 2-20 6-17 7-6 3h-3l-1 3-14 8-10 7-12 9-5 5h-2v2l-3 3-7 10-3 3-9 13-7 11-5 11-6 20-4 20-3 36-2 2 1 4 2 1 2 13 1 10h-4l-4-19-1-31v-15l4-24 6-18 7-16 8-14 10-13 10-11 9-11 11-9 17-12 14-8 8-4 24-8 14-3z" fill="#316692"/>
<path transform="translate(1218,992)" d="m0 0 9 1v1h-10v2l-17 3-13 6-12 8-10 9-9 14-6 13-1 4-7-1-12-8-13-8-22-13-5-5-1-2 5 1 16 9 16 10 11 6 4-2 4-6 9-4 5-8h2l2-5 9-8 9-6 10-5 11-4z" fill="#334D7A"/>
<path transform="translate(907,1101)" d="m0 0 5 2 2 7 4 2 1-4 5 1 3 7 3 3 6 7 2 1v2l5 2 12 7h12v-6l7-3 2 4-1 5-2 6v6h-4l-24-14-11-7-23-15-13-9 2-1 4 2v-4z" fill="#FEFEFE"/>
<path transform="translate(1135,925)" d="m0 0 2 1-9 7-15 11-6 7-16 16-7 9-2 4-2-1 5-10 8-9 7-8 10-9 8-7 5-4z" fill="#F9FBFC"/>
<path transform="translate(1207,899)" d="m0 0h26v1l-18 1-31 5h-6l3-2 15-4z" fill="#81B0C8"/>
<path transform="translate(745,1219)" d="m0 0 5 1 13 5 11 4 1 4-8-2-15-6-6-3z" fill="#336C97"/>
<path transform="translate(656,1091)" d="m0 0 3 1 2 13 1 10h-4l-2-8z" fill="#2D6692"/>
<path transform="translate(876,990)" d="m0 0 1 4-6 13-2 8h-1v-10l3-12z" fill="#283D6D"/>
<path transform="translate(1218,992)" d="m0 0 9 1v1h-10v2l-5 1h-13l3-3z" fill="#234272"/>
<path transform="translate(1007,1137)" d="m0 0 4 1 15 9 5 2v2l5 2 3 2v2l-5-2-19-12-8-5z" fill="#3F7AA1"/>
<path transform="translate(708,1195)" d="m0 0 5 1 12 10 2 4-5-2-14-12z" fill="#447CA3"/>
<path transform="translate(1135,925)" d="m0 0 2 1-9 7-11 8-2-1 8-8z" fill="#FEFEFE"/>
<path transform="translate(901,1213)" d="m0 0m-1 1m-2 1 5 1-5 4-11 5 1-4 8-5z" fill="#355681"/>
<path transform="translate(917,1202)" d="m0 0m-1 1m-1 1m-2 1 5 1-4 4-10 6-1-3z" fill="#375782"/>
<path transform="translate(999,999)" d="m0 0 6 2 11 7 1 2-6-1-12-8z" fill="#2B4F7D"/>
<path transform="translate(916,1080)" d="m0 0 10 2 6 5-1 3-14-8z" fill="#5585A8"/>
<path transform="translate(889,972)" d="m0 0 2 1-9 10-3 3-4 2 2-4 4-5z" fill="#A7C5D6"/>
<path transform="translate(938,1184)" d="m0 0m-1 1m-1 1m-1 1m-1 1m-1 1m-1 1m-1 1m-1 1m-1 1m-1 1m-1 1 1 4-8 6v-3h2l2-4z" fill="#32527F"/>
<path transform="translate(1227,993)" d="m0 0 8 1v2l5 1-2 1-10-2-11-1v-1z" fill="#32628D"/>
<path transform="translate(1026,1148)" d="m0 0 5 1v2l5 2 3 2v2l-5-2-8-5z" fill="#346C96"/>
<path transform="translate(963,977)" d="m0 0 4 1 5 3 4 2 1 3-4-1-10-7z" fill="#1D3365"/>
<path transform="translate(991,992)" d="m0 0 11 7-3 1-5-2-3-4z" fill="#325A86"/>
<path transform="translate(865,1229)" d="m0 0h3v2l-5 2-11 1 3-2z" fill="#1C3062"/>
<path transform="translate(1031,1149)" d="m0 0 9 5 4 4h-5v-3l-5-2-3-2z" fill="#253A6A"/>
</svg>
