<?xml version="1.0" encoding="utf-8"?>
<svg stroke="currentColor" fill="currentColor" stroke-width="0" viewBox="0 0 512 512" height="200px" width="200px" xmlns="http://www.w3.org/2000/svg">
  <defs>
    <radialGradient gradientUnits="userSpaceOnUse" cx="-337.344" cy="286.65" r="256.553" id="gradient-1" gradientTransform="matrix(0.968586, 0, 0, 0.964156, 581.156349, -20.392826)">
      <stop offset="0" style="stop-color: rgb(0% 0% 95.686%)"/>
      <stop offset="1" style="stop-color: rgb(0% 23.666% 41.042%)"/>
    </radialGradient>
  </defs>
  <path d="M 323.167 186.912 C 380.728 245.417 379.44 339.217 322.411 396.824 C 322.305 396.941 322.178 397.068 322.06 397.186 L 256.626 462.92 C 198.915 520.898 105.516 520.891 48.421 462.92 C -8.681 404.953 -8.186 310.616 49.527 252.647 L 85.658 216.35 C 95.239 206.724 111.62 213.122 112.04 226.725 C 112.577 244.06 115.563 261.478 121.155 278.297 C 123.048 283.992 121.641 290.292 117.405 294.547 L 104.661 307.349 C 77.372 334.763 76.286 379.403 103.019 407.086 C 130.015 435.041 174.629 435.207 202.126 407.584 L 267.559 341.86 C 295.009 314.283 295.129 269.71 268.083 242.249 C 264.517 238.635 260.92 235.828 258.111 233.866 C 254.079 231.061 251.609 226.489 251.448 221.536 C 251.118 211.199 254.8 200.547 262.93 192.379 L 283.431 171.783 C 288.807 166.382 297.2 165.719 303.377 170.089 C 310.453 175.097 317.075 180.727 323.167 186.912 Z M 460.399 49.043 C 403.304 -8.926 309.905 -8.934 252.194 49.043 L 186.76 114.778 C 186.643 114.894 186.516 115.022 186.409 115.139 C 129.38 172.748 128.092 266.546 185.654 325.052 C 191.745 331.237 198.367 336.866 205.442 341.873 C 211.619 346.244 220.013 345.579 225.388 340.18 L 245.888 319.584 C 254.017 311.416 257.7 300.764 257.371 290.428 C 257.209 285.474 254.738 280.902 250.708 278.096 C 247.898 276.135 244.301 273.327 240.735 269.714 C 213.69 242.253 213.81 197.68 241.259 170.104 L 306.693 104.378 C 334.19 76.754 378.802 76.921 405.8 104.877 C 432.533 132.56 431.448 177.199 404.157 204.615 L 391.413 217.416 C 387.178 221.672 385.77 227.972 387.664 233.666 C 393.255 250.486 396.242 267.902 396.778 285.239 C 397.199 298.841 413.579 305.239 423.16 295.613 L 459.292 259.315 C 517.006 201.348 517.502 107.011 460.399 49.043 Z" style="stroke: rgb(0, 131, 255); fill-rule: evenodd; fill: url('#gradient-1'); paint-order: stroke markers; transform-box: fill-box; transform-origin: 49.7706% 49.7728%;" transform="matrix(0.999999, -0.001179, 0.001179, 0.999999, 0, 0)"/>
</svg>