<?xml version="1.0" encoding="UTF-8" standalone="no" ?>
<!DOCTYPE svg PUBLIC "-//W3C//DTD SVG 1.1//EN" "http://www.w3.org/Graphics/SVG/1.1/DTD/svg11.dtd">
<svg xmlns="http://www.w3.org/2000/svg" xmlns:xlink="http://www.w3.org/1999/xlink" version="1.1" width="1080" height="1080" viewBox="0 0 1080 1080" xml:space="preserve">
<desc>Created with Fabric.js 5.2.4</desc>
<defs>
</defs>
<g transform="matrix(1 0 0 1 540 540)" id="d39ddd70-4675-42dc-902e-494244adc7ba"  >
</g>
<g transform="matrix(1 0 0 1 540 540)" id="a5911cb3-9d00-44a6-9a9c-41ef13503009"  >
<rect style="stroke: none; stroke-width: 1; stroke-dasharray: none; stroke-linecap: butt; stroke-dashoffset: 0; stroke-linejoin: miter; stroke-miterlimit: 4; fill: rgb(255,255,255); fill-rule: nonzero; opacity: 1; visibility: hidden;" vector-effect="non-scaling-stroke"  x="-540" y="-540" rx="0" ry="0" width="1080" height="1080" />
</g>
<g transform="matrix(7.57 0 0 7.57 540 570.14)"  >
<g style="" vector-effect="non-scaling-stroke"   >
		<g transform="matrix(1 0 0 1 2.5 -15.98)"  >
<polygon style="stroke: none; stroke-width: 1; stroke-dasharray: none; stroke-linecap: butt; stroke-dashoffset: 0; stroke-linejoin: miter; stroke-miterlimit: 4; fill: rgb(173,138,86); fill-rule: nonzero; opacity: 1;" vector-effect="non-scaling-stroke"  points="0,-27.15 -8.8,-9.25 -28.5,-6.45 -14.3,7.45 -17.6,27.15 0,17.85 17.6,27.15 14.3,7.45 28.5,-6.45 8.8,-9.25 " />
</g>
		<g transform="matrix(1 0 0 1 2.5 -13.13)"  >
<path style="stroke: none; stroke-width: 1; stroke-dasharray: none; stroke-linecap: butt; stroke-dashoffset: 0; stroke-linejoin: miter; stroke-miterlimit: 4; fill: rgb(173,138,86); fill-rule: nonzero; opacity: 1;" vector-effect="non-scaling-stroke"  transform=" translate(-50, -50)" d="M 50 5 C 25.2 5 5 25.2 5 50 C 5 74.8 25.2 95 50 95 C 74.8 95 95 74.8 95 50 C 95 25.200000000000003 74.8 5 50 5 z M 50 85 C 30.7 85 15 69.3 15 50 C 15 30.700000000000003 30.7 15 50 15 C 69.3 15 85 30.7 85 50 C 85 69.3 69.3 85 50 85 z" stroke-linecap="round" />
</g>
		<g transform="matrix(1 0 0 1 -18.05 50.3)" style=""  >
		<text xml:space="preserve" font-family="'Helvetica Neue', Helvetica, Arial-Unicode, Arial, Sans-serif" font-size="5" font-style="normal" font-weight="bold" style="stroke: none; stroke-width: 1; stroke-dasharray: none; stroke-linecap: butt; stroke-dashoffset: 0; stroke-linejoin: miter; stroke-miterlimit: 4; fill: rgb(173,138,86); fill-rule: nonzero; opacity: 1; white-space: pre;" ><tspan x="-29.45" y="1.57" >Created by Arthur Shlain</tspan></text>
</g>
		<g transform="matrix(1 0 0 1 -21.25 55.3)" style=""  >
		<text xml:space="preserve" font-family="'Helvetica Neue', Helvetica, Arial-Unicode, Arial, Sans-serif" font-size="5" font-style="normal" font-weight="bold" style="stroke: none; stroke-width: 1; stroke-dasharray: none; stroke-linecap: butt; stroke-dashoffset: 0; stroke-linejoin: miter; stroke-miterlimit: 4; fill: rgb(173,138,86); fill-rule: nonzero; opacity: 1; white-space: pre;" ><tspan x="-26.25" y="1.57" >from the Noun Project</tspan></text>
</g>
</g>
</g>
<g transform="matrix(NaN NaN NaN NaN 0 0)"  >
<g style=""   >
</g>
</g>
</svg>