<svg xmlns="http://www.w3.org/2000/svg" xmlns:xlink="http://www.w3.org/1999/xlink" version="1.1" x="0px" y="0px" viewBox="0 0 100 125" style="enable-background:new 0 0 100 100;" xml:space="preserve"><g><path d="M97,50c0,1.6-4.1,3-4.2,4.5c-0.2,1.6,3.5,3.8,3.2,5.3c-0.3,1.5-4.6,2-5.1,3.5c-0.5,1.5,2.7,4.4,2,5.8   c-0.6,1.4-4.9,1-5.7,2.4c-0.8,1.4,1.7,4.9,0.8,6.1c-0.9,1.3-5,0-6.1,1.1c-1.1,1.2,0.7,5.1-0.5,6.2c-1.2,1.1-4.9-1.1-6.2-0.1   c-1.3,0.9-0.4,5.1-1.8,5.9c-1.4,0.8-4.6-2.1-6-1.4c-1.4,0.6-1.5,4.9-3,5.4c-1.5,0.5-4-3-5.6-2.6c-1.5,0.3-2.5,4.5-4,4.7   C53.4,96.9,51.6,93,50,93c-1.6,0-3.4,3.9-4.9,3.7c-1.6-0.2-2.5-4.4-4-4.7c-1.5-0.3-4.1,3.1-5.6,2.6c-1.5-0.5-1.5-4.8-3-5.4   c-1.4-0.6-4.7,2.2-6,1.4c-1.4-0.8-0.5-5-1.8-5.9c-1.3-0.9-5,1.2-6.2,0.1c-1.2-1.1,0.5-5-0.5-6.2c-1.1-1.2-5.1,0.1-6.1-1.1   c-0.9-1.3,1.6-4.8,0.8-6.1c-0.8-1.4-5.1-0.9-5.7-2.4c-0.6-1.4,2.5-4.3,2-5.8c-0.5-1.5-4.7-2-5.1-3.5c-0.3-1.5,3.4-3.7,3.2-5.3   C7.1,53,3,51.6,3,50c0-1.6,4.1-3,4.2-4.5c0.2-1.6-3.5-3.8-3.2-5.3c0.3-1.5,4.6-2,5.1-3.5c0.5-1.5-2.7-4.4-2-5.8   c0.6-1.4,4.9-1,5.7-2.4c0.8-1.4-1.7-4.9-0.8-6.1c0.9-1.3,5,0,6.1-1.1c1.1-1.2-0.7-5.1,0.5-6.2c1.2-1.1,4.9,1.1,6.2,0.1   c1.3-0.9,0.4-5.1,1.8-5.9c1.4-0.8,4.6,2.1,6,1.4c1.4-0.6,1.5-4.9,3-5.4c1.5-0.5,4,3,5.6,2.6c1.5-0.3,2.5-4.5,4-4.7   C46.6,3.1,48.4,7,50,7c1.6,0,3.4-3.9,4.9-3.7c1.6,0.2,2.5,4.4,4,4.7c1.5,0.3,4.1-3.1,5.6-2.6c1.5,0.5,1.5,4.8,3,5.4   c1.4,0.6,4.7-2.2,6-1.4c1.4,0.8,0.5,5,1.8,5.9c1.3,0.9,5-1.2,6.2-0.1c1.2,1.1-0.5,5,0.5,6.2c1.1,1.2,5.1-0.1,6.1,1.1   c0.9,1.3-1.6,4.8-0.8,6.1c0.8,1.4,5.1,0.9,5.7,2.4c0.6,1.4-2.5,4.3-2,5.8c0.5,1.5,4.7,2,5.1,3.5c0.3,1.5-3.4,3.7-3.2,5.3   C92.9,47,97,48.4,97,50z"/></g><text x="0" y="115" fill="#000000" font-size="5px" font-weight="bold" font-family="'Helvetica Neue', Helvetica, Arial-Unicode, Arial, Sans-serif">Created by Lance B</text><text x="0" y="120" fill="#000000" font-size="5px" font-weight="bold" font-family="'Helvetica Neue', Helvetica, Arial-Unicode, Arial, Sans-serif">from the Noun Project</text></svg>