<?xml version="1.0" encoding="iso-8859-1"?>
<!-- Generator: Adobe Illustrator 19.0.0, SVG Export Plug-In . SVG Version: 6.00 Build 0)  -->
<!-- License: CC0. Made by SVG Repo: https://www.svgrepo.com/svg/69124/badge -->
<svg version="1.1" id="Layer_1" xmlns="http://www.w3.org/2000/svg" xmlns:xlink="http://www.w3.org/1999/xlink" x="0px" y="0px"
	 viewBox="0 0 502.001 502.001" style="enable-background:new 0 0 502.001 502.001;" xml:space="preserve">
<g>
	<g>
		<g>
			<path d="M499.072,243.929l-67.658-67.658V80.588c0-5.523-4.478-10-10-10H325.73L258.072,2.929C256.196,1.054,253.653,0,251,0
				s-5.195,1.054-7.071,2.929l-67.658,67.659H80.587c-5.522,0-10,4.477-10,10v95.683L2.929,243.929
				c-3.905,3.905-3.905,10.237,0,14.143l67.658,67.658v95.683c0,5.523,4.478,10,10,10h95.684l67.658,67.659
				c1.876,1.875,4.419,2.929,7.071,2.929s5.195-1.054,7.071-2.929l67.658-67.659h95.684c5.522,0,10-4.477,10-10V325.73
				l67.658-67.658C502.977,254.166,502.977,247.834,499.072,243.929z M414.342,314.516c-1.875,1.875-2.929,4.419-2.929,7.071v89.825
				h-89.826c-2.652,0-5.195,1.054-7.071,2.929L251,477.858l-63.516-63.516c-1.876-1.875-4.419-2.929-7.071-2.929H90.587v-89.825
				c0-2.652-1.054-5.196-2.929-7.071L24.143,251l63.516-63.516c1.875-1.875,2.929-4.419,2.929-7.071V90.588h89.826
				c2.652,0,5.195-1.054,7.071-2.929L251,24.142l63.516,63.516c1.876,1.875,4.419,2.929,7.071,2.929h89.826v89.825
				c0,2.652,1.054,5.196,2.929,7.071L477.858,251L414.342,314.516z"/>
			<path d="M370.374,304.272C370.356,304.256,370.357,304.258,370.374,304.272L370.374,304.272z"/>

			<path d="M370.387,304.284c-0.008-0.007-0.009-0.008-0.013-0.012C370.701,304.562,376.309,309.519,370.387,304.284z"/>

			<path d="M154,124c5.522,0,10-4.477,10-10s-4.478-10-10-10h-38c-5.522,0-10,4.477-10,10s4.478,10,10,10H154z"/>
			<path d="M193,104h-6c-5.522,0-10,4.477-10,10s4.478,10,10,10h6c5.522,0,10-4.477,10-10S198.523,104,193,104z"/>
			<path d="M350,379h-38c-5.522,0-10,4.477-10,10s4.478,10,10,10h38c5.522,0,10-4.477,10-10S355.523,379,350,379z"/>
			<path d="M389,379h-6c-5.522,0-10,4.477-10,10s4.478,10,10,10h6c5.522,0,10-4.477,10-10S394.523,379,389,379z"/>
		</g>
	</g>
</g>
</svg>
